<svg xmlns="http://www.w3.org/2000/svg" viewBox="0 0 48 48" width="48" height="48" aria-hidden="true">
  <path fill="#06C755" d="M24,4C12.954,4,4,11.82,4,21.469c0,6.52,4.332,12.207,10.731,14.821c0.838,0.39,0.711,0.334,0.543,1.234 c-0.062,0.334-0.136,0.854-0.265,1.112c-0.132,0.266-0.273,0.608,0.003,0.834c0.275,0.226,0.61,0.132,0.866,0.098 c1.147-0.16,7.343-4.838,8.546-5.703c0.59-0.426,0.16-0.818,0.275-1.184c0.091-0.293,0.596-0.376,0.596-0.376 c10.72,0,18.705-6.905,18.705-15.836C43.999,11.82,35.045,4,24,4z"/>
  <path fill="#fff" d="M14 17h3v10h-3zM21 17h3v10h-3zM28 17h3v10h-3z" opacity="0"/>
</svg>


