<svg width="32" height="32" viewBox="0 0 32 32" fill="none" xmlns="http://www.w3.org/2000/svg">
  <circle cx="16" cy="16" r="16" fill="url(#paint0_linear)" />
  <path d="M22.4 10.4C22.4 11.7255 21.3255 12.8 20 12.8C18.6745 12.8 17.6 11.7255 17.6 10.4C17.6 9.07452 18.6745 8 20 8C21.3255 8 22.4 9.07452 22.4 10.4Z" fill="white"/>
  <path d="M14.4 10.4C14.4 11.7255 13.3255 12.8 12 12.8C10.6745 12.8 9.6 11.7255 9.6 10.4C9.6 9.07452 10.6745 8 12 8C13.3255 8 14.4 9.07452 14.4 10.4Z" fill="white"/>
  <path d="M22.4 18.4C22.4 19.7255 21.3255 20.8 20 20.8C18.6745 20.8 17.6 19.7255 17.6 18.4C17.6 17.0745 18.6745 16 20 16C21.3255 16 22.4 17.0745 22.4 18.4Z" fill="white"/>
  <path d="M14.4 18.4C14.4 19.7255 13.3255 20.8 12 20.8C10.6745 20.8 9.6 19.7255 9.6 18.4C9.6 17.0745 10.6745 16 12 16C13.3255 16 14.4 17.0745 14.4 18.4Z" fill="white"/>
  <path d="M18.4 14.4C19.7255 14.4 20.8 13.3255 20.8 12C20.8 10.6745 19.7255 9.6 18.4 9.6C17.0745 9.6 16 10.6745 16 12C16 13.3255 17.0745 14.4 18.4 14.4Z" fill="white"/>
  <path d="M18.4 22.4C19.7255 22.4 20.8 21.3255 20.8 20C20.8 18.6745 19.7255 17.6 18.4 17.6C17.0745 17.6 16 18.6745 16 20C16 21.3255 17.0745 22.4 18.4 22.4Z" fill="white"/>
  <path d="M10.4 14.4C11.7255 14.4 12.8 13.3255 12.8 12C12.8 10.6745 11.7255 9.6 10.4 9.6C9.07452 9.6 8 10.6745 8 12C8 13.3255 9.07452 14.4 10.4 14.4Z" fill="white"/>
  <path d="M10.4 22.4C11.7255 22.4 12.8 21.3255 12.8 20C12.8 18.6745 11.7255 17.6 10.4 17.6C9.07452 17.6 8 18.6745 8 20C8 21.3255 9.07452 22.4 10.4 22.4Z" fill="white"/>
  <defs>
    <linearGradient id="paint0_linear" x1="0" y1="0" x2="32" y2="32" gradientUnits="userSpaceOnUse">
      <stop stop-color="#3B82F6"/>
      <stop offset="1" stop-color="#10B981"/>
    </linearGradient>
  </defs>
</svg>